<?xml version="1.0" standalone="no"?>
<!DOCTYPE svg PUBLIC "-//W3C//DTD SVG 1.1//EN" "http://www.w3.org/Graphics/SVG/1.1/DTD/svg11.dtd" >
<svg xmlns="http://www.w3.org/2000/svg">
<metadata>Generated by IcoMoon</metadata>
<defs>
<font id="icomoon" horiz-adv-x="512">
<font-face units-per-em="512" ascent="480" descent="-32" />
<missing-glyph horiz-adv-x="512" />
<glyph unicode="&#x20;" d="" horiz-adv-x="256" />
<glyph unicode="&#xe002;" d="M477.152 312.672c0 36.528-29.6 66.144-66.112 66.144h-310.080c-36.512 0-66.112-29.616-66.112-66.144v-177.344c0-36.512 29.6-66.144 66.112-66.144h310.080c36.512 0 66.112 29.632 66.112 66.144v177.344zM211.76 149.168v166.576l126.32-83.28-126.32-83.296z" />
<glyph unicode="&#xe00f;" d="M30.784 119.136c0-4.368 1.68-8.8 5.040-12.16 6.72-6.72 17.616-6.72 24.336 0l197.552 197.552 194.128-194.128c6.704-6.736 17.6-6.736 24.336 0 6.72 6.72 6.72 17.6 0 24.336l-206.288 206.272c-6.704 6.736-17.616 6.736-24.336 0l-209.728-209.696c-3.344-3.36-5.040-7.728-5.040-12.176v0z" />
<glyph unicode="&#xe010;" d="M431.344 241.312c25.44 2.096 42.72 13.68 49.36 29.376-9.168-5.648-37.68-11.792-53.44-5.936-0.784 3.712-1.648 7.216-2.448 10.384-12.032 44.048-53.072 79.552-96.144 75.264 3.488 1.392 7.024 2.72 10.512 3.888 4.736 1.696 32.544 6.224 28.176 16.032-3.68 8.624-37.664-6.528-44.048-8.496 8.448 3.184 22.416 8.624 23.904 18.336-12.96-1.76-25.648-7.888-35.44-16.768 3.552 3.808 6.256 8.448 6.816 13.456-34.512-22.032-54.656-66.464-70.976-109.568-12.832 12.416-24.16 22.176-34.336 27.616-28.56 15.312-62.72 31.312-116.32 51.2-1.648-17.744 8.768-41.328 38.784-57.008-6.496 0.88-18.368-1.056-27.904-3.344 3.872-20.32 16.512-37.056 50.768-45.152-15.648-1.040-23.728-4.608-31.056-12.272 7.12-14.112 24.512-30.752 55.808-27.328-34.784-15.008-14.192-42.768 14.128-38.624-48.304-49.872-124.416-46.208-168.16-4.496 114.16-155.552 362.32-91.984 399.248 57.824 27.696-0.24 44.016 9.6 54.096 20.432-15.936-2.736-39.056 0.080-51.328 5.184z" />
<glyph unicode="&#xe011;" d="M410.128 267.12h-225.792v60.528c0 0.752-0.032 1.536-0.096 2.288-0.016 0.304-1.52 30.144 15.712 48.784 10.544 11.408 27.28 17.184 49.744 17.184 26.848 0 46.464-6.528 58.304-19.376 16.704-18.096 14.944-45.12 14.912-46.192-1.504-16.080 10.256-30.384 26.336-32 16.144-1.664 30.624 10.176 32.256 26.336 0.528 5.392 4.304 53.648-29.536 91.024-23.44 25.92-57.856 39.056-102.272 39.056-39.584 0-70.864-12.128-92.992-36.080-32.576-35.2-31.824-82.096-31.28-92v-59.552h-23.536c-18.432 0-33.376-14.976-33.376-33.408v-207.088c0-18.448 14.944-33.392 33.376-33.392h308.24c18.432 0 33.36 14.944 33.36 33.392v207.088c0 18.448-14.928 33.408-33.36 33.408zM211.984 157.504l-71.376-29.024v-0.4l71.376-28.992v-24.736l-98.928 43.808v20.272l98.928 43.776v-24.704zM251.12 66.256h-23.312l37.696 146.992h23.344l-37.728-146.992zM398.944 117.312l-98.944-42.976v24.736l73.408 28.992v0.4l-73.408 29.216v24.512l98.944-42.976v-21.904z" />
<glyph unicode="&#xe012;" d="M159.344 16.432c-4.032 0-8.112 1.568-11.2 4.656-6.208 6.192-6.208 16.224 0 22.416l182.048 182.064-178.88 178.928c-6.208 6.176-6.208 16.208 0 22.416 6.192 6.192 16.224 6.192 22.416 0l190.112-190.112c6.208-6.192 6.208-16.256 0-22.464l-193.28-193.248c-3.088-3.088-7.12-4.656-11.216-4.656v0z" />
<glyph unicode="&#xe013;" d="M19.632 224c0-60.018 48.654-108.672 108.672-108.672s108.672 48.654 108.672 108.672c0 60.018-48.654 108.672-108.672 108.672-60.018 0-108.672-48.654-108.672-108.672zM274.992 224c0-60.018 48.654-108.672 108.672-108.672s108.672 48.654 108.672 108.672c0 60.018-48.654 108.672-108.672 108.672-60.018 0-108.672-48.654-108.672-108.672z" />
<glyph unicode="&#xe014;" d="M92.672 48.592c-3.408 0-6.88 1.312-9.488 3.936-5.232 5.232-5.232 13.696 0 18.944l153.856 153.872-151.168 151.184c-5.232 5.232-5.232 13.712 0 18.96 5.232 5.232 13.696 5.232 18.944 0l160.672-160.672c5.216-5.216 5.216-13.712 0-18.96l-163.344-163.328c-2.624-2.624-6.032-3.936-9.472-3.936v0zM419.312 48.592c-3.392 0-6.848 1.312-9.472 3.936l-163.312 163.328c-5.248 5.232-5.248 13.728 0 18.96l160.64 160.672c5.232 5.232 13.712 5.232 18.96 0 5.232-5.248 5.232-13.728 0-18.96l-151.184-151.184 153.872-153.872c5.216-5.232 5.216-13.696 0-18.944-2.64-2.624-6.032-3.936-9.504-3.936v0z" />
<glyph unicode="&#xe015;" d="M192.832 370.096v-65.664h-48.096v-80.272h48.096v-238.592h98.816v238.592h66.288c0 0 6.224 38.464 9.216 80.576h-75.12v54.896c0 8.208 10.784 19.232 21.408 19.232h53.824v83.568h-73.184c-103.696 0-101.248-80.336-101.248-92.336z" />
<glyph unicode="&#xe016;" d="M352.144 69.216h-192.288c-5.072 0-9.2-4.096-9.2-9.152v-10.816c0-5.056 4.112-9.184 9.2-9.184h192.288c5.072 0 9.184 4.128 9.184 9.184v10.816c0 5.056-4.112 9.152-9.184 9.152zM474.096 407.936h-436.192c-5.072 0-9.184-4.112-9.184-9.184v-300.864c0-5.056 4.112-9.184 9.184-9.184h161.776v5.376c0 5.088 4.128 9.216 9.184 9.216h94.256c5.072 0 9.184-4.128 9.184-9.216v-5.376h161.776c5.072 0 9.184 4.128 9.184 9.184v300.848c0.016 5.072-4.096 9.2-9.168 9.2zM368.016 105.968c0-5.056-4.112-9.184-9.184-9.184h-0.256c-5.072 0-9.184 4.128-9.184 9.184v0.256c0 5.088 4.112 9.216 9.184 9.216h0.256c5.072 0 9.184-4.128 9.184-9.216v-0.256zM400.208 105.968c0-5.056-4.128-9.184-9.184-9.184h-0.256c-5.072 0-9.2 4.128-9.2 9.184v0.256c0 5.088 4.128 9.216 9.2 9.216h0.256c5.056 0 9.184-4.128 9.184-9.216v-0.256zM442.352 139.184c0-5.056-4.112-9.184-9.184-9.184h-354.336c-5.072 0-9.2 4.128-9.2 9.184v218.24c0 5.072 4.112 9.184 9.2 9.184h354.336c5.072 0 9.184-4.112 9.184-9.184v-218.24z" />
<glyph unicode="&#xe017;" d="M350.8 462.608h-189.6c-20.704 0-37.504-16.8-37.504-37.504v-402.192c0-20.72 16.8-37.504 37.504-37.504h189.6c20.72 0 37.52 16.784 37.52 37.504v402.176c0 20.72-16.8 37.52-37.52 37.52zM227.872 430.848h56.24c7.12 0 12.912-5.776 12.912-12.896s-5.776-12.896-12.912-12.896h-56.24c-7.12 0-12.896 5.776-12.896 12.896s5.776 12.896 12.896 12.896zM192.784 20h-16.544c-4.752 0-8.608 3.84-8.608 8.592s3.856 8.624 8.608 8.624h16.544c4.736 0 8.592-3.872 8.592-8.624s-3.856-8.592-8.592-8.592zM192.784 51.776h-16.544c-4.752 0-8.608 3.84-8.608 8.592s3.856 8.624 8.608 8.624h16.544c4.736 0 8.592-3.872 8.592-8.624s-3.856-8.592-8.592-8.592zM240.448 20h-16.544c-4.736 0-8.608 3.84-8.608 8.592s3.872 8.624 8.608 8.624h16.544c4.736 0 8.592-3.872 8.592-8.624s-3.856-8.592-8.592-8.592zM240.448 51.776h-16.544c-4.736 0-8.608 3.84-8.608 8.592s3.872 8.624 8.608 8.624h16.544c4.736 0 8.592-3.872 8.592-8.624s-3.856-8.592-8.592-8.592zM288.080 20h-16.496c-4.752 0-8.624 3.84-8.624 8.592s3.856 8.624 8.624 8.624h16.496c4.768 0 8.624-3.872 8.624-8.624s-3.856-8.592-8.624-8.592zM288.080 51.776h-16.496c-4.752 0-8.624 3.84-8.624 8.592s3.856 8.624 8.624 8.624h16.496c4.768 0 8.624-3.872 8.624-8.624s-3.856-8.592-8.624-8.592zM335.76 20h-16.544c-4.752 0-8.592 3.84-8.592 8.592s3.84 8.624 8.592 8.624h16.544c4.752 0 8.592-3.872 8.592-8.624s-3.84-8.592-8.592-8.592zM335.76 51.776h-16.544c-4.752 0-8.592 3.84-8.592 8.592s3.84 8.624 8.592 8.624h16.544c4.752 0 8.592-3.872 8.592-8.624s-3.84-8.592-8.592-8.592zM349.936 105.6c0-4.128-3.36-7.504-7.504-7.504h-172.88c-4.128 0-7.488 3.376-7.488 7.504v260.848c0 4.144 3.36 7.504 7.488 7.504h172.88c4.144 0 7.504-3.344 7.504-7.504v-260.848z" />
<glyph unicode="&#xe018;" d="M420.896 291.696c-21.248 26.432-51.008 41.728-79.088 41.728-37.184 0-52.896-17.648-78.672-17.648-26.576 0-46.8 17.616-78.944 17.616-31.6 0-65.168-19.184-86.464-51.968-29.968-46.112-24.88-132.88 23.696-206.784 17.376-26.432 40.576-56.176 70.912-56.432 26.976-0.256 34.592 17.184 71.184 17.392 36.592 0.224 43.472-17.584 70.464-17.344 30.336 0.304 54.8 33.2 72.176 59.648 12.448 18.944 17.088 28.496 26.736 49.92-70.256 26.528-81.536 125.776-12 163.872zM313.584 362.944c13.52 17.344 23.76 41.824 20.048 66.832-22.064-1.52-47.84-15.552-62.928-33.856-13.664-16.608-24.96-41.232-20.56-65.168 24.064-0.752 48.992 13.648 63.44 32.192z" />
<glyph unicode="&#xe019;" d="M354.128 13.248c4.096 0 8.24 1.584 11.376 4.72 6.304 6.304 6.304 16.48 0 22.768l-184.848 184.864 181.632 181.664c6.32 6.288 6.32 16.464 0 22.768-6.288 6.288-16.448 6.288-22.752 0l-193.040-193.040c-6.304-6.288-6.304-16.48 0-22.784l196.24-196.24c3.136-3.136 7.216-4.72 11.392-4.72v0z" />
<glyph unicode="&#xe01a;" d="M30.784 328.864c0 4.368 1.68 8.8 5.040 12.16 6.72 6.72 17.616 6.72 24.336 0l197.552-197.552 194.128 194.128c6.704 6.736 17.6 6.736 24.336 0 6.72-6.72 6.72-17.6 0-24.336l-206.288-206.272c-6.704-6.736-17.616-6.736-24.336 0l-209.728 209.696c-3.344 3.36-5.040 7.728-5.040 12.176v0z" />
<glyph unicode="&#xe01b;" d="M176 259.6c-1.184 9.056-4.24 17.232-9.168 24.528-7.152 9.808-18.272 14.72-33.328 14.72-21.456 0-36.144-10.624-44.032-31.904-4.192-11.264-6.256-26.256-6.256-44.944 0-17.792 2.064-32.112 6.256-42.944 7.6-20.24 21.904-30.336 42.928-30.336 14.928 0 25.52 4 31.776 12.032 6.256 8.032 10.064 18.448 11.408 31.232h64.912c-1.488-19.344-8.48-37.632-20.992-54.88-19.952-27.808-49.488-41.712-88.64-41.712-39.168 0-67.984 11.6-86.432 34.8-18.464 23.2-27.68 53.296-27.68 90.272 0 41.696 10.192 74.16 30.592 97.36 20.4 23.2 48.528 34.8 84.4 34.8 30.528 0 55.504-6.848 74.928-20.512 19.44-13.68 30.928-37.84 34.496-72.496h-65.168zM430.128 259.6c-1.184 9.056-4.256 17.232-9.152 24.528-7.152 9.808-18.288 14.72-33.344 14.72-21.472 0-36.16-10.624-44.064-31.904-4.192-11.264-6.288-26.256-6.288-44.944 0-17.792 2.096-32.112 6.288-42.944 7.632-20.24 21.904-30.336 42.976-30.336 14.912 0 25.472 4 31.712 12.032 6.288 8.032 10.096 18.448 11.408 31.232h64.944c-1.472-19.344-8.496-37.632-20.976-54.88-19.968-27.808-49.536-41.712-88.688-41.712s-67.936 11.6-86.432 34.8c-18.432 23.2-27.68 53.296-27.68 90.272 0 41.696 10.176 74.16 30.624 97.36 20.368 23.2 48.496 34.8 84.4 34.8 30.496 0 55.472-6.848 74.912-20.512 19.44-13.68 30.944-37.84 34.528-72.496h-65.168z" />
<glyph unicode="&#xe01c;" d="M297.184 222.832l68.416 64.608c-106.928 62.864-272.912 160.32-275.328 161.296-3.584 1.456-7.456 2.256-11.552 2.256-0.816 0-1.6-0.192-2.4-0.24l220.864-227.92zM57.712 442.736c-6.256-5.728-10.272-13.872-10.272-23.024v-392.272c0-11.184 5.936-20.944 14.768-26.464l221.232 208.864-225.728 232.896zM296.624 196.256l-211.024-199.264c1.088 0.288 2.224 0.496 3.264 0.88 1.632 0.528 151.264 84.88 258.64 145.872l-50.88 52.512zM454.112 235.392c-2.016 1.184-30.864 18.16-71.504 42.048l-72.256-68.208 54.128-55.824c48.048 27.312 84.544 48.224 89.632 51.536 15.072 8.576 12.768 22.784 0 30.448z" />
<glyph unicode="&#xe01d;" d="M461.664 289.792c-4.912 2.384-10.816 0.352-13.216-4.544-2.432-4.88-0.432-10.832 4.432-13.312 0.656-0.32 15.632-8.096 15.632-24.688 0-7.392-3.344-13.968-9.44-18.464-6.816-5.088-16.368-6.864-27.024-5.328 0.528 4.72 0.912 9.488 0.912 14.32 0 85.152-83.472 154.208-186.464 154.208-54.016 0-102.656-19.024-136.704-49.392-0.288-0.24-0.576-0.512-0.864-0.768-0.224-0.192-0.448-0.4-0.656-0.576-0.032-0.032-0.048-0.048-0.048-0.064 0 0-4.816-3.44-7.536-2.88-2.688 0.544-20.592 3.776-26.56-5.968 0 0-12.448-11.376-4.336-30.352 0 0 0.464-6.496-2.752-10.288-3.2-3.792-11.872-8.688-11.872-35.776 0 0-3.248-16.8-10.848-22.208-7.584-5.44-26.56-14.096-18.96-31.44 7.584-17.376 15.696-35.76 28.72-30.912 0 0 13.040 3.312 20.032-0.8 3.136-1.856 6.864-5.824 11.472-10.72 13.6-19.136 32-35.632 53.888-48.336-0.976-10.32-2.896-27.136-5.744-37.136 0 0-10.304-18.336 12.48-18.336 22.752 0 43.904 0 43.904 0s15.696 2.064 15.696 21.024c0 3.68 0 7.072 0 10.256 13.088-2.416 26.688-3.728 40.656-3.728 32.496 0 63.024 6.912 89.632 18.976 0-5.632 0-14.512 0-25.488 0-18.976 15.712-21.024 15.712-21.024s21.12 0 43.904 0c22.752 0 12.464 18.336 12.464 18.336-3.12 10.864-7.712 51.552-10.064 73.728 14.224 16.464 24.592 35.344 30.16 55.744 3.68-0.576 7.28-0.864 10.784-0.864 12.096 0 23.12 3.328 31.872 9.808 11.088 8.24 17.44 20.8 17.44 34.432 0.016 29.2-25.6 42.032-26.704 42.56zM272.080 140.656v-32.768h-31.472v30.224c-21.328 0.96-42 7.008-54.096 13.68l9.536 37.232c13.36-7.344 32.144-14.032 52.816-14.032 18.448 0 30.864 7.344 30.864 19.728 0 12.112-10.176 19.744-34.064 27.696-34.016 11.456-57.264 27.36-57.264 58.224 0 28.32 19.744 50.272 53.76 56.624v30.24h31.184v-27.984c20.992-0.64 35.312-5.424 46.432-10.512l-9.536-35.936c-7.936 3.824-22.912 11.136-45.824 11.136-20.672 0-27.36-9.232-27.36-18.144 0-10.176 11.136-17.168 38.496-27.040 37.872-13.36 52.848-30.848 52.848-59.808 0.016-28.32-19.728-52.528-56.32-58.56z" />
<glyph unicode="&#xe600;" d="M366.857 265.714q0 8-5.143 13.143l-26 25.715q-5.428 5.428-12.857 5.428t-12.857-5.428l-116.572-116.286-64.572 64.572q-5.428 5.428-12.857 5.428t-12.857-5.428l-26-25.714q-5.143-5.143-5.143-13.143 0-7.714 5.143-12.857l103.428-103.428q5.428-5.428 12.857-5.428 7.714 0 13.143 5.428l155.143 155.143q5.143 5.143 5.143 12.857zM438.857 219.429q0-59.714-29.428-110.143t-79.857-79.857-110.143-29.428-110.143 29.428-79.857 79.857-29.428 110.143 29.428 110.143 79.857 79.857 110.143 29.428 110.143-29.428 79.857-79.857 29.428-110.143z" horiz-adv-x="439" />
<glyph unicode="&#xe601;" d="M374.857 220.286q0 46-24.857 84.286l-215.429-215.143q39.143-25.428 84.857-25.428 31.714 0 60.428 12.428t49.572 33.286 33.143 49.857 12.286 60.714zM89.428 134.857l215.714 215.428q-38.572 26-85.714 26-42.286 0-78-20.857t-56.572-56.857-20.857-78.285q0-46.286 25.428-85.428zM438.857 220.286q0-44.857-17.428-85.714t-46.714-70.286-70-46.857-85.286-17.428-85.286 17.428-70 46.857-46.715 70.286-17.428 85.714 17.428 85.572 46.715 70.143 70 46.857 85.286 17.428 85.286-17.428 70-46.857 46.714-70.143 17.428-85.572z" horiz-adv-x="439" />
<glyph unicode="&#xe602;" d="M368 256l-128-128-128 128h80v192h96v-192zM240 128h-240v-128h480v128h-240zM448 64h-64v32h64v-32z" />
<glyph unicode="&#xe625;" d="M512 221.714q0-49.714-34.286-91.857t-93.143-66.572-128.572-24.428q-20 0-41.428 2.286-56.572-50-131.429-69.143-14-4-32.572-6.286-4.857-0.572-8.715 2.572t-5 8.286v0.286q-0.857 1.143-0.143 3.428t0.572 2.857 1.285 2.714l1.715 2.572t2 2.428 2.285 2.572q2 2.286 8.857 9.857t9.857 10.857 8.857 11.286 9.285 14.572 7.715 16.857 7.428 21.714q-44.857 25.428-70.715 62.857t-25.857 80.286q0 37.143 20.285 71t54.572 58.428 81.714 39 99.428 14.428q69.714 0 128.571-24.428t93.143-66.572 34.286-91.857z" />
<glyph unicode="&#xe626;" d="M402.286 256q0-39.714-26.857-73.428t-73.286-53.286-101-19.572q-24.572 0-50.286 4.572-35.428-25.143-79.428-36.572-10.285-2.572-24.572-4.572h-0.857q-3.143 0-5.857 2.286t-3.285 6q-0.285 0.857-0.285 1.857t0.143 1.857 0.572 1.714l0.715 1.428t1 1.572 1.143 1.428 1.285 1.428 1.143 1.286q1.428 1.714 6.572 7.143t7.428 8.428 6.428 8.286 7.143 11 5.857 12.572q-35.428 20.572-55.715 50.572t-20.285 64q0 39.714 26.857 73.428t73.285 53.286 101 19.571 101-19.571 73.286-53.286 26.857-73.428zM512 182.857q0-34.286-20.286-64.143t-55.714-50.428q2.857-6.857 5.857-12.572t7.143-11 6.428-8.286 7.428-8.428 6.572-7.143q0.286-0.286 1.143-1.286t1.286-1.428 1.143-1.428 1-1.572l0.714-1.428t0.572-1.714 0.143-1.857-0.286-1.857q-0.857-4-3.714-6.286t-6.286-2q-14.286 2-24.572 4.572-44 11.428-79.428 36.572-25.714-4.572-50.286-4.572-77.428 0-134.857 37.714 16.571-1.143 25.143-1.143 46 0 88.286 12.857t75.428 36.857q35.714 26.286 54.857 60.572t19.143 72.572q0 22-6.572 43.428 36.857-20.286 58.286-50.857t21.429-65.714z" />
<glyph unicode="&#xe627;" d="M256 365.714q-58.286 0-109-19.857t-80.572-53.572-29.857-72.857q0-32 20.428-61t57.572-50.143l24.857-14.286-7.714-27.428q-6.857-26-20-49.143 43.428 18 78.572 48.857l12.286 10.857 16.286-1.714q19.714-2.286 37.143-2.286 58.285 0 109 19.857t80.572 53.572 29.857 72.857-29.857 72.857-80.572 53.572-109 19.857zM512 219.429q0-49.714-34.286-91.857t-93.143-66.572-128.572-24.428q-20 0-41.428 2.286-56.572-50-131.429-69.143-14-4-32.572-6.286h-1.428q-4.285 0-7.715 3t-4.572 7.857v0.286q-0.857 1.143-0.143 3.428t0.572 2.857 1.285 2.714l1.715 2.572t2 2.428 2.285 2.572q2 2.286 8.857 9.857t9.857 10.857 8.857 11.286 9.285 14.572 7.715 16.857 7.428 21.714q-44.857 25.428-70.715 62.857t-25.857 80.286q0 49.714 34.285 91.857t93.143 66.572 128.571 24.428 128.571-24.428 93.143-66.572 34.286-91.857z" />
<glyph unicode="&#xe628;" d="M201.143 365.714q-43.715 0-81.715-14.857t-60.428-40.286-22.428-54.571q0-23.428 15.143-45.143t42.572-37.714l27.715-16-10-24q9.715 5.714 17.715 11.143l12.571 8.857 15.143-2.857q22.285-4 43.715-4 43.714 0 81.714 14.857t60.428 40.286 22.428 54.572-22.428 54.572-60.428 40.286-81.714 14.857zM201.143 402.286q54.571 0 101-19.572t73.286-53.285 26.857-73.428-26.857-73.428-73.286-53.286-101-19.572q-24.572 0-50.286 4.572-35.428-25.143-79.428-36.572-10.285-2.572-24.572-4.572h-0.857q-3.143 0-5.857 2.286t-3.285 6q-0.285 0.857-0.285 1.857t0.143 1.857 0.572 1.714l0.715 1.428t1 1.572 1.143 1.428 1.285 1.428 1.143 1.286q1.428 1.714 6.572 7.143t7.428 8.428 6.428 8.286 7.143 11 5.857 12.572q-35.428 20.572-55.715 50.572t-20.285 64q0 39.714 26.857 73.428t73.285 53.285 101 19.572zM436 68.286q2.857-6.857 5.857-12.572t7.143-11 6.428-8.286 7.428-8.428 6.572-7.143q0.286-0.286 1.143-1.286t1.286-1.428 1.143-1.428 1-1.572l0.714-1.428t0.572-1.714 0.143-1.857-0.286-1.857q-0.857-4-3.714-6.286t-6.286-2q-14.286 2-24.572 4.572-44 11.428-79.428 36.572-25.714-4.572-50.286-4.572-77.428 0-134.857 37.714 16.571-1.143 25.143-1.143 46 0 88.286 12.857t75.428 36.857q35.714 26.286 54.857 60.572t19.143 72.572q0 22-6.572 43.428 36.857-20.286 58.286-50.857t21.429-65.714q0-34.286-20.286-64.143t-55.714-50.428z" />
<glyph unicode="&#xe629;" d="M219.429 438.857q59.715 0 110.143-29.428t79.857-79.857 29.428-110.143-29.428-110.143-79.857-79.857-110.143-29.428-110.143 29.428-79.857 79.857-29.428 110.143 29.428 110.143 79.857 79.857 110.143 29.428zM329.143 203.714q9.143 5.143 9.143 15.714t-9.143 15.714l-155.429 91.428q-8.857 5.428-18.285 0.286-9.143-5.428-9.143-16v-182.857q0-10.572 9.143-16 4.572-2.286 9.143-2.286 4.857 0 9.143 2.572z" horiz-adv-x="439" />
<glyph unicode="&#xe62a;" d="M431.714 173.714q0-1.428-0.286-2-18.286-76.572-76.572-124.143t-136.571-47.572q-41.715 0-80.715 15.714t-69.572 44.857l-36.857-36.857q-5.428-5.428-12.857-5.428t-12.857 5.428-5.428 12.857v128q0 7.428 5.428 12.857t12.857 5.428h128q7.428 0 12.857-5.428t5.429-12.857-5.428-12.857l-39.143-39.143q20.285-18.857 46-29.143t53.429-10.286q38.286 0 71.428 18.572t53.143 51.143q3.143 4.857 15.143 33.428 2.286 6.572 8.572 6.572h54.857q3.714 0 6.428-2.714t2.714-6.428zM438.857 402.286v-128q0-7.428-5.428-12.857t-12.857-5.428h-128q-7.428 0-12.857 5.428t-5.428 12.857 5.428 12.857l39.428 39.428q-42.286 39.143-99.714 39.143-38.286 0-71.428-18.571t-53.143-51.143q-3.143-4.857-15.143-33.428-2.285-6.572-8.572-6.572h-56.857q-3.715 0-6.428 2.714t-2.715 6.428v2q18.572 76.572 77.143 124.143t137.143 47.572q41.714 0 81.143-15.857t70-44.714l37.143 36.857q5.428 5.428 12.857 5.428t12.857-5.428 5.428-12.857z" horiz-adv-x="439" />
<glyph unicode="&#xe62b;" d="M402.286 74q0-34.286-20.857-54.143t-55.428-19.857h-249.714q-34.572 0-55.428 19.857t-20.857 54.143q0 15.143 1 29.572t4 31.143 7.572 31 12.285 27.857 17.715 23.143 24.428 15.286 31.857 5.714q2.572 0 12-6.143t21.285-13.714 30.857-13.714 38.143-6.143 38.143 6.143 30.857 13.714 21.286 13.714 12 6.143q17.428 0 31.857-5.714t24.428-15.285 17.714-23.143 12.286-27.857 7.572-31 4-31.143 1-29.572zM310.857 329.143q0-45.428-32.143-77.572t-77.572-32.143-77.572 32.143-32.143 77.572 32.143 77.571 77.572 32.143 77.572-32.143 32.143-77.571z" horiz-adv-x="403" />
<glyph unicode="&#xe62c;" d="M169.429 219.429q-46.285-1.428-75.715-36.572h-38.285q-23.428 0-39.428 11.572t-16 33.857q0 100.857 35.428 100.857 1.715 0 12.428-6t27.857-12.143 34-6.143q19.143 0 38 6.572-1.429-10.572-1.429-18.857 0-39.714 23.143-73.143zM475.428 37.429q0-34.286-20.857-54.143t-55.428-19.857h-249.714q-34.572 0-55.428 19.857t-20.857 54.143q0 15.143 1 29.572t4 31.143 7.572 31 12.285 27.857 17.715 23.143 24.428 15.286 31.857 5.714q2.857 0 12.286-6.143t20.857-13.714 30.572-13.714 38.572-6.143 38.572 6.143 30.572 13.714 20.857 13.714 12.286 6.143q17.428 0 31.857-5.714t24.428-15.286 17.714-23.143 12.286-27.857 7.572-31 4-31.143 1-29.572zM182.857 402.286q0-30.285-21.429-51.714t-51.715-21.428-51.715 21.428-21.428 51.714 21.428 51.715 51.715 21.428 51.715-21.428 21.428-51.715zM384 292.572q0-45.428-32.143-77.571t-77.572-32.143-77.572 32.143-32.143 77.572 32.143 77.572 77.572 32.143 77.572-32.143 32.143-77.572zM548.572 228.286q0-22.285-16-33.857t-39.428-11.572h-38.286q-29.428 35.143-75.714 36.572 23.143 33.428 23.143 73.143 0 8.286-1.428 18.857 18.857-6.572 38-6.572 16.857 0 34 6.143t27.857 12.143 12.428 6q35.428 0 35.428-100.857zM512 402.286q0-30.285-21.428-51.714t-51.714-21.428-51.714 21.428-21.428 51.714 21.428 51.715 51.714 21.428 51.714-21.428 21.428-51.715z" horiz-adv-x="549" />
<glyph unicode="&#xe62d;" d="M246.064 14.8h-171.984c-31.296 0-52.544 19.088-52.544 50.976 0 44.464 10.432 112.752 68.080 112.752 6.096 0 31.872-27.36 70.448-27.36s64.336 27.36 70.448 27.36c57.664 0 68.080-68.288 68.080-112.752 0.016-31.888-21.232-50.976-52.528-50.976zM160.080 165.92c-41.712 0-75.568 33.84-75.568 75.568s33.84 75.568 75.568 75.568 75.568-33.84 75.568-75.568-33.856-75.568-75.568-75.568zM374.176 458.56c-64.224 0-116.288-37.248-116.288-83.232 0-27.456 18.672-51.728 47.296-66.896-2.224-11.728-8.096-26.688-22.816-40.816 0 0-18.352-15.92 0-12.256 14.464 2.912 43.456 13.504 65.84 38.88 8.336-1.36 16.992-2.16 25.936-2.16 64.224 0 116.288 37.28 116.288 83.232 0 46-52.064 83.248-116.256 83.248z" />
<glyph unicode="&#xe62e;" d="M307.088 4.176h-186.496c-33.92 0-56.976 20.704-56.976 55.264 0 48.224 11.312 122.272 73.824 122.272 6.624 0 34.576-29.664 76.384-29.664s69.776 29.664 76.384 29.664c62.512 0 73.824-74.048 73.824-122.272 0.032-34.56-23.024-55.264-56.944-55.264zM213.84 168.048c-45.232 0-81.936 36.704-81.936 81.936s36.704 81.936 81.936 81.936 81.936-36.704 81.936-81.936-36.704-81.936-81.936-81.936zM246.144 346.064v48.752h76.576v76.56h49.12v-76.56h76.528v-48.752h-76.528v-76.944h-49.12v76.944h-76.576z" />
<glyph unicode="&#xe62f;" d="M294.752 34.784c-12.48 0-24.944 5.12-33.856 15.248-16.56 18.688-14.848 47.296 3.872 63.84l124.24 110.128-124.256 110.112c-18.72 16.56-20.432 45.168-3.872 63.872 16.592 18.688 45.2 20.416 63.92 3.856l162.432-143.984c9.68-8.592 15.248-20.912 15.248-33.856s-5.568-25.264-15.248-33.856l-162.432-143.952c-8.64-7.664-19.36-11.408-30.048-11.408v0zM54.752 34.784c-12.48 0-24.944 5.12-33.856 15.248-16.56 18.688-14.848 47.296 3.872 63.84l124.24 110.128-124.24 110.112c-18.72 16.56-20.432 45.168-3.872 63.872 16.576 18.688 45.184 20.416 63.904 3.856l162.432-143.984c9.68-8.592 15.248-20.912 15.248-33.856s-5.568-25.264-15.248-33.856l-162.432-143.952c-8.64-7.664-19.36-11.408-30.048-11.408v0z" />
<glyph unicode="&#xe630;" d="M307.312 72.432c-0.48 7.008-1.472 14.624-2.896 22.64-1.456 8.080-3.328 15.728-5.568 22.752-2.32 7.184-5.44 14.304-9.328 21.104-3.968 7.024-8.688 13.136-13.936 18.192-5.488 5.232-12.192 9.456-19.936 12.512s-16.336 4.624-25.536 4.624c-2.128 0-4.352-0.688-7.312-2.208 14.288 15.904 21.616 34.928 21.616 56.672 0 23.488-8.432 43.824-25.040 60.432-16.608 16.624-36.944 25.040-60.432 25.040s-43.824-8.416-60.432-25.040c-16.624-16.624-25.040-36.96-25.040-60.432 0-21.76 7.328-40.784 21.632-56.688-2.96 1.504-5.216 2.224-7.328 2.224-9.216 0-17.808-1.568-25.52-4.624-7.776-3.056-14.496-7.28-19.952-12.512-5.264-5.024-9.952-11.136-13.968-18.192-3.872-6.848-7.008-13.936-9.312-21.12-2.224-6.96-4.096-14.608-5.552-22.736-1.44-8.048-2.416-15.664-2.912-22.64-0.48-6.848-0.704-13.968-0.704-21.216 0-18.416 5.824-33.328 17.328-44.288 11.392-10.848 26.496-16.336 44.88-16.336h173.728c18.384 0 33.472 5.504 44.864 16.336 11.52 10.96 17.344 25.856 17.344 44.288 0.032 7.184-0.208 14.32-0.688 21.216zM111.44 276.256c13.248 13.248 28.784 19.68 47.504 19.68 18.704 0 34.256-6.432 47.504-19.68 13.248-13.248 19.68-28.8 19.68-47.52s-6.432-34.256-19.68-47.504c-13.248-13.248-28.784-19.68-47.504-19.68-18.72 0-34.256 6.432-47.504 19.68s-19.68 28.784-19.68 47.504 6.432 34.272 19.68 47.52zM278.080 20.176c-7.984-7.616-18.544-11.296-32.256-11.296h-173.744c-13.728 0-24.288 3.68-32.272 11.296-7.856 7.488-11.664 17.648-11.664 31.040 0 6.832 0.224 13.536 0.672 19.936 0.432 6.336 1.328 13.296 2.672 20.688 1.328 7.344 2.992 14.208 4.976 20.4 1.92 5.984 4.544 11.92 7.792 17.648 3.136 5.504 6.736 10.24 10.704 14.016 3.744 3.616 8.48 6.544 14.032 8.736 5.216 2.080 11.104 3.2 17.504 3.328 0.72-0.352 2.144-1.152 4.64-2.784 4.4-2.864 9.36-6.064 14.88-9.6 6.144-3.904 14.080-7.456 23.568-10.512 19.344-6.288 39.376-6.272 58.704-0.016 9.488 3.072 17.44 6.624 23.584 10.528 5.52 3.536 10.48 6.736 14.88 9.6 2.512 1.632 3.92 2.416 4.656 2.784 6.384-0.128 12.288-1.248 17.52-3.328 5.552-2.192 10.288-5.12 14.032-8.736 3.984-3.792 7.584-8.512 10.704-14 3.232-5.712 5.856-11.664 7.776-17.664 2-6.24 3.68-13.088 4.976-20.4 1.328-7.36 2.224-14.336 2.672-20.688 0.448-6.464 0.672-13.168 0.672-19.936-0.016-13.408-3.824-23.552-11.68-31.040zM278.032 233.184c-8.4 0-11.248 5.152-12.048 7.376-0.864 2.304-3.472 9.312 10.688 21.616 8.992 8.64 15.296 18.704 18.576 29.776-29.232 17.6-46.48 44.176-46.48 72.192 0 51.424 56.832 93.264 126.688 93.264 69.84 0 126.656-41.84 126.656-93.264s-56.816-93.28-126.656-93.28c-7.504 0-15.12 0.528-22.784 1.568-27.872-29.2-61.536-37.152-68.224-38.496-2.448-0.512-4.576-0.752-6.416-0.752zM375.472 439.12c-59.776 0-108.416-33.632-108.416-74.976 0-23.392 15.664-45.104 42.944-59.536l5.952-3.152-1.232-6.624c-2.64-14.064-8.816-26.944-18.4-38.352 14.832 5.76 32.272 16.112 46.064 31.744l3.344 3.776 4.992-0.816c8.336-1.36 16.656-2.048 24.768-2.048 59.744 0 108.368 33.648 108.368 75.008s-48.64 74.976-108.384 74.976z" />
<glyph unicode="&#xe631;" d="M334.16 457.936h-126.624c-33.168 0-74.976-4.896-110-33.728-26.464-22.736-39.344-54.016-39.344-82.288 0-47.888 36.88-96.416 102.016-96.416 6.128 0 12.88 0.624 19.696 1.216-3.088-7.344-6.192-13.488-6.192-23.936 0-19.008 9.84-30.688 18.416-41.76-27.632-1.792-79.264-4.848-117.392-28.176-36.256-21.552-47.344-52.848-47.344-74.96 0-45.44 43.056-87.824 132.16-87.824 105.744 0 161.696 58.336 161.696 116.064 0 42.352-24.592 63.232-51.632 85.968l-22.16 17.184c-6.736 5.536-15.952 12.88-15.952 26.4 0 13.504 9.216 22.128 17.2 30.080 25.792 20.272 51.632 41.744 51.632 87.2 0 46.672-29.536 71.232-43.664 82.912h38.128l39.36 22.064zM280.096 82.192c0-38.096-31.344-66.32-90.368-66.32-65.76 0-108.192 31.328-108.192 74.896 0 43.632 39.36 58.336 52.864 63.264 25.824 8.592 59.008 9.808 64.528 9.808 6.16 0 9.248 0 14.176-0.592 46.72-33.152 66.992-49.744 66.992-81.056zM230.912 279.888c-9.84-9.808-26.464-17.168-41.824-17.168-52.848 0-76.816 68.176-76.816 109.28 0 15.984 3.072 32.544 13.504 45.456 9.824 12.272 27.040 20.256 43.024 20.256 51.008 0 77.472-68.768 77.472-112.976 0.016-11.072-1.232-30.704-15.36-44.848zM484.592 256h-59.248v59.248h-32.32v-59.248h-59.216v-32.32h59.216v-59.216h32.32v59.216h59.248z" />
<glyph unicode="&#xe632;" d="M34.384 57.776c78.384-35.552 171.472-55.392 263.152-55.392 29.744 0 59.008 1.376 87.552 6.096 11.184 1.84 25.68 6 31.952 10.8 8.784 6.752 14.416 17.36 14.416 29.264 0 11.008-4.8 20.976-12.496 27.696h3.248c20.368 0 36.944 16.544 36.944 36.96s-16.56 36.944-36.944 36.944h18.464c20.384 0 36.928 16.528 36.928 36.928s-16.528 36.944-36.928 36.944c20.384 0 36.928 16.512 36.928 36.96 0 20.384-16.528 36.928-36.928 36.928h-165.648c-12.736 0-23.088 10.336-23.088 23.072l11.632 76.736c1.072 3.504 1.664 7.2 1.664 10.992 0 20.4-16.528 36.912-36.96 36.912-17.072 0-31.472-11.632-35.648-27.328l-1.568-5.28c-23.728-75.52-77.44-144.512-156.672-189.008v-166.224z" />
<glyph unicode="&#xe633;" d="M44.24 58.4c0-19.904 16.128-36.032 36.032-36.032h117.152c19.904 0 36.032 16.128 36.032 36.032v144.192c0 19.92-16.128 36.032-36.032 36.032h-57.84c-10 0-18.032 8.128-18.032 18.032 0 3.232 0.816 5.488 0.816 5.488 13.152 43.632 46.4 78.592 89.024 94.096l0.192 0.176c12.88 5.504 21.872 18.304 21.872 33.168 0 19.904-16.128 36.048-36.032 36.048-4.88 0-9.472-0.992-13.68-2.704l-1.632-0.64c-80.656-31.44-137.872-109.856-137.872-201.664v-162.224zM278.512 58.4c0-19.904 16.16-36.032 36.064-36.032h117.152c19.904 0 36.032 16.128 36.032 36.032v144.192c0 19.92-16.128 36.032-36.032 36.032h-57.872c-10 0-18 8.128-18 18.032 0 3.328 0.784 5.488 0.784 5.488 13.152 43.632 46.4 78.592 89.024 94.096l0.192 0.176c12.912 5.504 21.904 18.304 21.904 33.168 0 19.904-16.128 36.048-36.032 36.048-4.88 0-9.472-0.992-13.712-2.704l-1.632-0.64c-80.656-31.44-137.872-109.856-137.872-201.664v-162.224z" />
<glyph unicode="&#xe634;" d="M344.832 435.888c-7.776 0-14.048-6.272-14.048-14.016v-71.664c0-7.744 6.272-14.016 14.048-14.016h21.824c7.712 0 13.984 6.272 13.984 14.016v71.664c0 7.744-6.272 14.016-13.984 14.016h-21.824zM145.376 435.888c-7.712 0-14-6.272-14-14.016v-71.664c0-7.744 6.288-14.016 14-14.016h21.824c7.728 0 14.016 6.272 14.016 14.016v71.664c0 7.744-6.288 14.016-14.016 14.016h-21.824zM268.464 124.304h74.8v-37.408h-74.8v37.408zM268.464 186.592h74.8v-37.36h-74.8v37.36zM268.464 248.944h74.8v-37.408h-74.8v37.408zM368.208 124.304h74.784v-37.408h-74.784v37.408zM368.208 186.592h74.784v-37.36h-74.784v37.36zM368.208 248.944h74.784v-37.408h-74.784v37.408zM168.752 124.304h74.784v-37.408h-74.784v37.408zM168.752 186.592h74.784v-37.36h-74.784v37.36zM168.752 248.944h74.784v-37.408h-74.784v37.408zM69.040 124.304h74.768v-37.408h-74.768v37.408zM69.040 186.592h74.768v-37.36h-74.768v37.36zM69.040 248.944h74.768v-37.408h-74.768v37.408zM73.696 386.032c-23.232 0-42.064-18.816-42.064-42.048v-289.808c0-23.232 18.832-42.064 42.064-42.064h364.592c23.232 0 42.064 18.832 42.064 42.064v289.808c0 23.232-18.832 42.048-42.064 42.048h-32.72v-32.688c0-23.232-18.832-42.096-42.064-42.096h-15.584c-23.232 0-42.064 18.864-42.064 42.096l-0.208 32.688h-99.52v-32.688c0-23.232-18.832-42.096-42.064-42.096h-15.584c-23.232 0-42.048 18.864-42.048 42.096v32.688h-32.736z" />
<glyph unicode="&#xe635;" d="M467.76 389.584c0 19.92-16.128 36.048-36.032 36.048h-117.152c-19.904 0-36.032-16.128-36.032-36.048v-144.176c0-19.92 16.128-36.048 36.032-36.048h57.84c10 0 18.032-8.112 18.032-18.016 0-3.248-0.816-5.504-0.816-5.504-13.152-43.632-46.4-78.592-89.024-94.096l-0.192-0.16c-12.88-5.504-21.872-18.32-21.872-33.184 0-19.904 16.128-36.032 36.032-36.032 4.88 0 9.472 0.976 13.68 2.688l1.632 0.656c80.656 31.44 137.872 109.84 137.872 201.664v162.208zM233.488 389.584c0 19.92-16.16 36.048-36.064 36.048h-117.152c-19.904 0-36.032-16.128-36.032-36.048v-144.176c0-19.92 16.128-36.048 36.032-36.048h57.872c10 0 18-8.112 18-18.016 0-3.344-0.784-5.504-0.784-5.504-13.152-43.632-46.4-78.592-89.024-94.096l-0.192-0.16c-12.912-5.504-21.904-18.32-21.904-33.184 0-19.904 16.128-36.032 36.032-36.032 4.88 0 9.472 0.976 13.712 2.688l1.632 0.656c80.656 31.44 137.872 109.84 137.872 201.664v162.208z" />
<glyph unicode="&#xe636;" d="M260.496 48.848c-20.848 0-36.928 17.152-36.928 36.976 0 21.136 16.080 37.376 36.928 37.376 20.416 0 36.528-16.72 36.528-37.376 0-19.824-16.528-36.976-36.528-36.976zM281.808 178.688c-0.896-8.368-2.608-8.784-9.12-8.784h-24.768c-6.528 0-8.272 0.4-9.12 8.784l-9.568 172.064c-0.448 7.504-0.448 6.144-0.448 8.832 0 5.68 4.352 5.68 7.824 5.68h46.496c3.472 0 8.688 0 8.688-5.68 0-2.688 0-1.328-0.432-8.832l-9.552-172.064zM256 467.024c-132.544 0-240-108.768-240-243.024 0-134.224 107.456-243.024 240-243.024 132.544 0 240 108.816 240 243.024 0 134.256-107.456 243.024-240 243.024zM256 16.496c-112.992 0-204.928 93.056-204.928 207.472s91.936 207.488 204.928 207.488c112.976 0 204.928-93.072 204.928-207.488s-91.952-207.472-204.928-207.472z" />
<glyph unicode="&#xe637;" d="M260.048 370.272c-40.096-38.672-82.368-58.992-123.312-58.992-15.408 0-31.376 1.984-47.712 5.856v-77.44c0-107.024 118.464-166.416 166.976-186.192 48.496 19.776 167.008 79.168 167.008 186.192v88.304c-16.432-3.184-32.4-4.784-47.712-4.784-37.744 0.016-77.248 16.176-115.248 47.056zM474.080 418.272c0 0-39.184-23.504-98.816-23.504s-105.408 64.080-105.408 64.080c-7.632 10.704-19.568 10.32-26.528-0.816 0 0-46.976-75.168-106.592-75.168-59.664 0-100.656 32.8-100.656 32.8-10.256 8.208-18.624 4.176-18.624-8.96 0 0 0-59.648 0-167.008 0-190.816 215.68-255.536 215.68-255.536 12.592-3.744 33.12-3.744 45.712 0 0 0 215.68 64.72 215.68 255.536 0 95.424 0 167.008 0 167.008 0.016 13.136-9.2 18.32-20.448 11.568zM446.832 239.712c0-128.976-144.848-194.336-190.848-211.84-45.968 17.504-190.816 82.864-190.816 211.84v109.776c21.632-8.24 46.192-14.352 71.568-14.352 49.248 0 92.56 35.488 121.936 68.064 29.12-27.536 70.432-56.128 116.592-56.128 25.312 0 49.968 4.896 71.568 11.376v-118.736z" />
<glyph unicode="&#xe638;" d="M398.816 242.688c5.184 8.24 11.072 13.504 11.072 27.616 0 3.648-0.128 7.184-0.352 10.576-0.256 3.584-0.752 7.456-1.504 11.696-0.8 4.352-1.744 8.24-2.912 11.872-1.28 3.952-3.008 7.856-5.152 11.664-2.304 4.048-5.056 7.616-8.16 10.656-3.472 3.28-7.648 5.936-12.416 7.808-0.896 0.336-1.84 0.512-2.752 0.784 0 0.032 0 0.048 0 0.048 13.184 3.552 26.496 6.848 39.6 8.864 12.72 1.264 27.92-7.6 37.408-21.12 0-0.016-15.072-43.984-54.832-80.464zM160.432 317.76c9.872 0 18.336 3.504 25.296 10.48 1.616 1.616 3.008 3.328 4.24 5.088 1.072 1.984 2 4.016 3.328 5.904 1.92 4.368 2.928 9.136 2.928 14.336 0 9.872-3.504 18.304-10.496 25.312-6.96 6.992-15.408 10.48-25.296 10.48-9.904 0-18.32-3.504-25.328-10.48-6.976-7.008-10.48-15.424-10.48-25.296 0-9.904 3.504-18.336 10.48-25.328 7.008-6.992 15.44-10.496 25.328-10.496zM162.352 257.632c4.208 4.032 9.344 7.264 15.248 9.616 4.352 1.712 9.040 2.832 14 3.264-6.096 9.808-9.184 20.912-9.184 33.12 0 4.992 0.656 9.744 1.68 14.352-0.4-0.288-0.704-0.464-1.136-0.752-2.576-1.648-5.936-3.12-10.080-4.464-4.128-1.328-8.272-2-12.432-2s-8.32 0.672-12.464 2c-4.144 1.344-7.504 2.832-10.064 4.464-2.576 1.648-4.912 3.152-6.96 4.48-2.048 1.36-3.344 2-3.904 2-3.808 0-7.28-0.608-10.384-1.856-3.152-1.248-5.824-2.912-8.016-4.992-2.144-2.112-4.064-4.592-5.744-7.536-1.664-2.976-3.008-6.016-4.016-9.104-0.992-3.12-1.808-6.512-2.48-10.144-0.64-3.632-1.072-7.008-1.296-10.16-0.24-3.104-0.352-6.32-0.352-9.616 0-7.472 2.288-13.36 6.816-17.664 4.528-4.32 10.576-6.48 18.096-6.48h33.632c2.688 4.288 5.648 8.208 9.040 11.472zM301.008 333.344c1.264-1.76 2.608-3.488 4.272-5.088 6.928-6.992 15.392-10.48 25.28-10.48s18.304 3.504 25.312 10.48c6.976 7.008 10.48 15.424 10.48 25.328 0 9.872-3.52 18.304-10.48 25.312-7.008 6.992-15.424 10.48-25.312 10.48s-18.352-3.504-25.28-10.48c-7.008-7.008-10.528-15.44-10.528-25.312 0-5.184 1.008-9.952 2.96-14.336 1.296-1.888 2.24-3.92 3.296-5.904zM395.872 279.936c-0.224 3.136-0.656 6.528-1.296 10.16-0.656 3.632-1.456 7.008-2.496 10.144-0.992 3.088-2.336 6.144-4 9.104-1.664 2.944-3.6 5.424-5.744 7.536-2.192 2.080-4.864 3.728-8 4.992-3.12 1.248-6.608 1.856-10.4 1.856-0.528 0-1.856-0.64-3.904-2-2.048-1.328-4.384-2.848-6.96-4.48-2.544-1.648-5.904-3.12-10.064-4.464-4.144-1.328-8.288-2-12.432-2s-8.336 0.672-12.432 2c-4.16 1.344-7.536 2.832-10.080 4.464-0.432 0.288-0.768 0.464-1.168 0.752 1.024-4.608 1.68-9.36 1.68-14.352 0-12.224-3.072-23.312-9.184-33.12 4.976-0.432 9.664-1.552 14-3.264 5.904-2.336 11.008-5.584 15.264-9.616 3.376-3.248 6.368-7.168 9.008-11.488h33.632c7.552 0 13.616 2.176 18.096 6.48 4.56 4.32 6.848 10.208 6.848 17.664-0.016 3.296-0.128 6.512-0.368 9.632zM208.768 266.432c10.288-10.272 22.672-15.424 37.2-15.424 14.512 0 26.912 5.152 37.2 15.424 10.304 10.288 15.424 22.672 15.424 37.184 0 14.544-5.12 26.96-15.424 37.216-10.288 10.272-22.672 15.392-37.2 15.392-14.528 0-26.912-5.12-37.2-15.392-10.272-10.272-15.408-22.672-15.408-37.216 0-14.512 5.152-26.896 15.408-37.184zM186.112 145.808h71.36c32.368 16.336 61.28 34.816 84.288 51.2-0.336 4.224-0.896 8.624-1.728 13.408-0.976 5.328-2.16 10.288-3.616 14.864-1.488 4.56-3.424 8.992-5.92 13.36-2.448 4.336-5.296 8.016-8.464 11.088-3.184 3.040-7.104 5.504-11.728 7.312-4.592 1.84-9.696 2.752-15.28 2.752-0.832 0-2.736-0.992-5.744-2.96-3.008-1.968-6.4-4.144-10.176-6.56-3.808-2.416-8.752-4.608-14.832-6.592-6.080-1.952-12.176-2.928-18.288-2.928-6.128 0-12.224 0.976-18.304 2.928-6.064 1.984-11.008 4.176-14.784 6.592-3.776 2.416-7.2 4.592-10.208 6.56-2.992 1.968-4.928 2.96-5.728 2.96-5.584 0-10.672-0.912-15.296-2.752-4.608-1.808-8.512-4.272-11.712-7.312-3.184-3.072-6.016-6.768-8.48-11.088-2.448-4.352-4.432-8.8-5.904-13.36-1.456-4.576-2.656-9.536-3.632-14.864-0.96-5.344-1.584-10.336-1.92-14.944-0.32-4.624-0.48-9.36-0.48-14.192 0-10.976 3.328-19.616 10-25.952 6.656-6.336 15.52-9.52 26.576-9.52zM459.712 312.384c7.312-14.144 14.48-27.456 21.408-40.32 8.336-15.488 16.944-31.488 25.872-48.976 6.592-34.128-27.904-61.984-55.968-84.592-60.976-47.824-155.792-79.888-228.304-79.888-12.72 0-24.768 0.992-35.808 3.072-12.064 2.096-68.224 14.128-108.624 30.72 7.008-0.624 14-0.944 21.008-0.944 118.272 0 235.808 84.080 285.168 124.192l0.208 0.192c37.728 34.512 60.576 59.904 75.040 96.544zM82.272 260.24c-0.704 3.008-1.168 6.32-1.168 10.064 0 3.648 0.112 7.184 0.352 10.624 0.064 1.088 0.336 2.416 0.464 3.584-5.456-1.232-10.896-2.752-16.288-4.64-43.52-16.576-64.112-49.84-61.184-99.168 3.456-37.056 18.576-61.376 46.16-74.384 17.28-3.936 34.784-5.52 52.272-5.264-28.24 29.968-34.96 64.976-35.328 89.984-0.336 23.776 5.2 48.288 14.72 69.2z" />
<glyph unicode="&#xe639;" d="M65.28 191.808c-0.528 35.456 11.712 72.736 31.216 97.024-11.104-1.344-22.224-3.792-33.136-7.6-43.808-16.672-64.56-50.16-61.616-99.824 3.488-37.312 18.688-61.792 46.48-74.88 17.376-3.984 35.008-5.568 52.624-5.312-28.416 30.176-35.184 65.408-35.568 90.592zM462 313.936c7.392-14.272 14.608-27.68 21.6-40.672 8.416-15.616 17.088-31.76 26.096-49.376 6.672-34.464-28.144-62.544-56.464-85.376-61.52-48.208-157.152-80.56-230.288-80.56-12.816 0-24.976 1.008-36.112 3.088-12.16 2.096-68.816 14.256-109.568 30.992 7.056-0.624 14.112-0.944 21.184-0.944 119.312 0 237.84 84.816 287.632 125.28l0.256 0.192c38.048 34.8 61.072 60.416 75.664 97.376zM416.288 346.080c-13.968-2.176-28.128-5.712-42.192-9.552v-97.76c6.608-0.336 13.136-0.496 19.552-0.336 30.512 29.264 48.4 52.4 60.272 86.384-9.568 13.616-24.832 22.528-37.632 21.264zM334.944 337.504h-54.512v26.384c0 14.464-11.712 26.16-26.16 26.16h-119.776c-14.448 0-26.16-11.696-26.16-26.16v-136.016c0-14.464 11.712-26.144 26.16-26.144h54.496v-26.4c0-14.448 11.696-26.144 26.16-26.144h49.184c11.472 6.064 22.544 12.336 32.992 18.672l45.008 29.792c6.784 4.848 12.928 9.472 18.704 13.872v99.824c0.016 14.448-11.68 26.16-26.096 26.16zM189.344 249.456h-38.128c-5.2 0-9.376 4.208-9.376 9.376 0 5.216 4.192 9.392 9.376 9.392h38.128v-18.768zM189.344 290.352h-38.128c-5.2 0-9.376 4.176-9.376 9.36 0 5.2 4.192 9.392 9.376 9.392h38.128v-18.752zM198.544 331.2h-47.328c-5.2 0-9.376 4.176-9.376 9.376 0 5.184 4.192 9.392 9.376 9.392h80.912c5.168 0 9.376-4.208 9.376-9.392 0-1.056-0.288-2.048-0.608-2.992h-25.408c-6.496 0-12.352-2.464-16.944-6.384zM312.96 194.624h-80.912c-5.184 0-9.376 4.208-9.376 9.392s4.192 9.376 9.376 9.376h80.912c5.152 0 9.392-4.192 9.392-9.376s-4.24-9.392-9.392-9.392zM312.96 235.504h-80.912c-5.184 0-9.376 4.176-9.376 9.36s4.192 9.392 9.376 9.392h80.912c5.152 0 9.392-4.208 9.392-9.392-0.016-5.2-4.24-9.36-9.392-9.36zM312.96 276.352h-80.912c-5.184 0-9.376 4.192-9.376 9.376s4.192 9.392 9.376 9.392h80.912c5.152 0 9.392-4.208 9.392-9.392-0.016-5.184-4.24-9.376-9.392-9.376z" />
<glyph unicode="&#xe63a;" d="M66.88 198.608c-0.528 35.424 11.696 72.624 31.152 96.88-11.088-1.344-22.176-3.776-33.088-7.584-43.728-16.656-64.448-50.080-61.504-99.664 3.488-37.248 18.672-61.696 46.4-74.752 17.36-3.968 34.96-5.584 52.528-5.296-28.368 30.144-35.12 65.296-35.488 90.416zM508.016 230.864c-8.992 17.568-17.648 33.664-26.016 49.2-6.992 12.928-14.16 26.304-21.536 40.512-14.528-36.816-37.488-62.336-75.408-96.992l-0.224-0.192c-52.528-42.704-181.952-134.96-307.68-123.888 40.608-16.656 97.040-28.768 109.152-30.864 74.336-13.92 193.376 20.736 265.44 77.168 28.208 22.784 62.88 50.752 56.272 85.056zM110.64 221.68c0 0 9.504 2.4 14.608-0.592 2.288-1.328 4.992-4.24 8.368-7.792 9.888-13.952 23.312-25.984 39.264-35.232-0.704-7.504-2.096-19.792-4.176-27.088 0 0-7.504-13.36 9.088-13.36 16.608 0 31.984 0 31.984 0s11.456 1.52 11.456 15.344c0 2.672 0 5.136 0 7.472 9.536-1.76 19.456-2.736 29.632-2.736 8.88 0 17.472 0.928 25.888 2.272 43.568 24.32 79.072 51.008 99.664 67.728 0.064 0.048 0.128 0.112 0.208 0.176 2.752 5.648 5.136 11.44 6.768 17.488 2.688-0.4 5.312-0.64 7.872-0.64 1.168 0 2.288 0.16 3.44 0.24 12.608 12.32 23.2 23.904 32.096 35.792-2.112 18.512-18.336 26.88-19.072 27.232-3.584 1.744-7.856 0.272-9.648-3.296-1.76-3.584-0.32-7.92 3.232-9.712 0.48-0.224 11.392-5.888 11.392-18 0-5.392-2.448-10.16-6.848-13.44-4.992-3.712-11.984-5.008-19.744-3.904 0.384 3.44 0.64 6.912 0.64 10.464 0 62.032-60.8 112.352-135.872 112.352-39.36 0-74.8-13.856-99.632-36-0.24-0.16-0.448-0.368-0.656-0.56-0.16-0.144-0.336-0.272-0.48-0.432-0.016-0.032-0.032-0.032-0.032-0.032 0 0-3.52-2.496-5.52-2.080-1.952 0.368-14.976 2.736-19.328-4.368 0 0-9.088-8.288-3.168-22.112 0 0 0.352-4.736-2-7.504-2.336-2.768-8.656-6.336-8.656-26.080 0 0-2.384-12.24-7.904-16.176-5.52-3.968-19.344-10.272-13.824-22.912 5.52-12.624 11.456-26.080 20.96-22.512zM250.272 258.88c-24.816 8.352-41.744 19.936-41.744 42.432 0 20.624 14.4 36.608 39.184 41.264v22.032h22.72v-20.4c15.312-0.464 25.728-3.936 33.872-7.648l-6.976-26.208c-5.776 2.784-16.672 8.112-33.392 8.112-15.072 0-19.952-6.736-19.952-13.216 0-7.424 8.112-12.512 28.096-19.712 27.584-9.728 38.48-22.48 38.48-43.584 0-20.624-14.4-38.256-41.072-42.656v-23.904h-22.96v22.048c-15.536 0.704-30.608 5.104-39.408 9.968l6.96 27.12c9.728-5.328 23.408-10.176 38.496-10.176 13.44 0 22.528 5.328 22.528 14.352 0 8.832-7.456 14.384-24.832 20.176zM412.48 317.856c2.048-0.992 15.76-8.32 22.224-23.792 3.824 5.44 7.344 11.056 10.592 17.024 1.792 3.744 3.504 7.552 5.056 11.504l3.84 9.68c-9.6 13.072-24.4 21.584-36.912 20.352-15.6-2.432-31.472-6.544-47.088-10.896 7.888-9.248 14.4-19.408 19.024-30.336 4.8 7.424 15.136 10.432 23.264 6.464z" />
<glyph unicode="&#xe63b;" d="M165.296 341.184c0-15.696-12.72-28.416-28.416-28.416h-70.848c-15.696 0-28.416 12.72-28.416 28.416v70.832c0 15.696 12.72 28.416 28.416 28.416h70.848c15.696 0 28.416-12.72 28.416-28.416v-70.832zM319.84 341.184c0-15.696-12.72-28.416-28.416-28.416h-70.848c-15.68 0-28.416 12.72-28.416 28.416v70.832c0 15.696 12.736 28.416 28.416 28.416h70.848c15.696 0 28.416-12.72 28.416-28.416v-70.832zM474.384 341.184c0-15.696-12.72-28.416-28.416-28.416h-70.848c-15.68 0-28.416 12.72-28.416 28.416v70.832c0 15.696 12.736 28.416 28.416 28.416h70.848c15.696 0 28.416-12.72 28.416-28.416v-70.832zM165.296 188.56c0-15.68-12.72-28.4-28.416-28.4h-70.848c-15.696 0-28.416 12.72-28.416 28.4v70.848c0 15.696 12.72 28.432 28.416 28.432h70.848c15.696 0 28.416-12.736 28.416-28.432v-70.848zM319.84 188.56c0-15.68-12.72-28.4-28.416-28.4h-70.848c-15.68 0-28.416 12.72-28.416 28.4v70.848c0 15.696 12.736 28.432 28.416 28.432h70.848c15.696 0 28.416-12.736 28.416-28.432v-70.848zM474.384 188.56c0-15.68-12.72-28.4-28.416-28.4h-70.848c-15.68 0-28.416 12.72-28.416 28.4v70.848c0 15.696 12.736 28.432 28.416 28.432h70.848c15.696 0 28.416-12.736 28.416-28.432v-70.848zM165.296 35.968c0-15.68-12.72-28.4-28.416-28.4h-70.848c-15.696 0-28.416 12.72-28.416 28.4v70.848c0 15.712 12.72 28.432 28.416 28.432h70.848c15.696 0 28.416-12.72 28.416-28.432v-70.848zM319.84 35.968c0-15.68-12.72-28.4-28.416-28.4h-70.848c-15.68 0-28.416 12.72-28.416 28.4v70.848c0 15.712 12.736 28.432 28.416 28.432h70.848c15.696 0 28.416-12.72 28.416-28.432v-70.848zM474.384 35.968c0-15.68-12.72-28.4-28.416-28.4h-70.848c-15.68 0-28.416 12.72-28.416 28.4v70.848c0 15.712 12.736 28.432 28.416 28.432h70.848c15.696 0 28.416-12.72 28.416-28.432v-70.848z" />
<glyph unicode="&#xe63c;" d="M474.384 341.184c0-15.696-12.72-28.416-28.416-28.416h-379.936c-15.696 0-28.416 12.72-28.416 28.416v70.832c0 15.696 12.72 28.416 28.416 28.416h379.936c15.696 0 28.416-12.72 28.416-28.416v-70.832zM474.384 188.56c0-15.68-12.72-28.4-28.416-28.4h-379.936c-15.696 0-28.416 12.72-28.416 28.4v70.848c0 15.696 12.72 28.416 28.416 28.416h379.936c15.696 0 28.416-12.72 28.416-28.416v-70.848zM474.384 35.968c0-15.68-12.72-28.4-28.416-28.4h-379.936c-15.696 0-28.416 12.72-28.416 28.4v70.848c0 15.712 12.72 28.432 28.416 28.432h379.936c15.696 0 28.416-12.72 28.416-28.432v-70.848z" />
<glyph unicode="&#xe63d;" d="M512 458.432l-463.632-463.632c420.864-162.064 463.632 463.632 463.632 463.632zM490.448 480c0 0-625.712-42.784-463.648-463.632l463.648 463.632z" />
<glyph unicode="&#xe63e;" d="M456.944 149.184c-22.816 46.528-58.096 74.848-144.624 74.848h-17.808c-31.472 0-49.232-2.352-75.984-10.8-31.008-9.776-118.096-105.36-172.352-167.568 15.424-14.224 32.336-26.88 50.464-37.664l105.184 96.992c0.208-2.928 1.936-91.808 2.784-135.856 7.696-1.184 15.52-2 23.376-2.592l136.896 244.896c14.752-2.976 27.008-7.456 37.424-13.056l-129.712-231.92c47.52 3.344 92 17.664 130.928 40.48l2.336 74.4 6.688-68.912c21.408 13.568 40.992 29.712 58.304 48.080-5.168 45.104-10.176 81.104-13.904 88.672zM303.296 366.912h-88.080c-2.864-8.928-4.832-18.368-4.832-28.304 0-51.328 41.6-92.816 92.752-92.816 0.064 0 0.064 0 0.16 0h0.064c51.232 0 92.784 41.504 92.784 92.816 0 9.936-1.888 19.376-4.816 28.304h-88.032zM303.296 381.28h88.032l7.664 72.512-95.696 24.672-95.76-24.672 7.68-72.512z" />
<glyph unicode="&#xe63f;" d="M393.92 363.344c0-8.739-7.084-15.824-15.824-15.824s-15.824 7.084-15.824 15.824c0 8.739 7.084 15.824 15.824 15.824 8.74 0 15.824-7.085 15.824-15.824zM288.56 457.248c0-12.459-10.101-22.56-22.56-22.56s-22.56 10.101-22.56 22.56c0 12.459 10.101 22.56 22.56 22.56 12.459 0 22.56-10.101 22.56-22.56zM166.56 457.296c0-12.539-10.258-22.704-22.912-22.704s-22.912 10.165-22.912 22.704c0 12.539 10.258 22.704 22.912 22.704 12.654 0 22.912-10.165 22.912-22.704zM81.632 328.672c5.088-1.456 10.352 1.136 11.712 5.808l17.536 61.2 8.528 0.032-25.616-105.984h22.656v-75.28c0-6.192 4.976-11.232 11.184-11.232s11.28 5.024 11.28 11.232v75.28h9.52v-75.28c0-6.192 4.976-11.232 11.168-11.232 6.24 0 11.28 5.024 11.28 11.232v75.28h22.272l-25.36 105.984 8.528-0.032 17.36-60.56c0.304-1.024 0.736-1.968 1.344-2.8 1.696-2.56 4.656-3.984 7.968-3.888 3.328-0.096 6.272 1.296 7.968 3.84 0.72 0.896 1.184 1.968 1.472 3.136l17.296 60.272 7.84 0.032c0 0 0-168.288 0-179.056 0-7.344 5.984-13.248 13.296-13.248s13.216 5.904 13.216 13.248c0 10.768 0 101.888 0 101.888h9.792c0 0 0-91.104 0-101.888 0-7.344 5.936-13.248 13.216-13.248 7.328 0 13.328 5.904 13.328 13.248 0 10.768 0 179.056 0 179.056l8.544-0.032 16.832-61.184c0.896-3.024 3.408-4.992 6.416-5.776 0.144-0.048 0.224-0.096 0.336-0.128 2.672-0.624 15.008-4.080 24.096-6.672 0-16.512 0-104.16 0-111.056 0-5.136 4.192-9.28 9.312-9.28 5.104 0 9.264 4.144 9.264 9.28 0 7.6 0 55.456 0 55.456h7.312c0 0 0-47.872 0-55.456 0-5.136 4.144-9.28 9.264-9.28 5.104 0 9.344 4.144 9.344 9.28 0 7.6 0 103.744 0 103.744h7.152c0 0 0-30.736 0-35.152 0-3.856 3.136-6.976 6.912-6.976 3.84 0 6.864 3.104 6.864 6.976 0 3.808 0 34.272 0 40 0 11.168-9.824 20.272-21.040 20.272-5.584 0-37.296 0-42.688 0-0.208 0-14.288 1.264-14.288 1.264l-17.888 62.304c-7.168 25.12-28.224 24.336-28.224 24.336h-57.872c0 0-21.008 0.768-28.208-24.336l-8.832-30.672-8.8 30.672c-7.232 25.12-28.224 24.336-28.224 24.336h-44.768c0 0-21.024 0.768-28.224-24.336l-18.016-62.768c-1.712-5.888 1.472-10.352 6.64-11.856zM296.288 8.16l0.080-40.16h94.992v16.864c0 10.944 2.144 18.176 10.832 26.32l87.28 92.736c12.528 14.608 19.472 33.296 19.472 52.656v140c0 14.512-11.76 26.336-26.304 26.336-14.592 0-26.464-11.824-26.464-26.336v-102.24c14-6.368 22.416-19.296 22.448-33.36 0-9.36-3.728-18.256-10.576-25.12l-54.24-59.568c-2.528-3.088-5.872-7.952-7.552-13.344-0.944-2.928-1.216-6.032-1.264-9.92h-17.216c0.080 5.456 0.544 10.192 2.128 15.056 2.896 9.376 8.768 17.024 12.208 21.104l53.456 57.216c3.216 3.808 4.992 8.688 4.992 13.664 0 11.568-9.424 20.992-21.008 20.992-5.504 0-10.672-2.096-14.592-5.888l-110.784-111.248c-19.152-20.048-17.888-40.48-17.888-55.76zM109.84 11.2c8.656-8.176 10.784-15.408 10.784-26.336v-16.864h95.024l0.080 40.16c0 15.28 1.232 35.712-17.872 55.776l-110.784 111.248c-3.936 3.792-9.12 5.84-14.608 5.84-11.6 0-20.992-9.392-20.992-20.96 0-5.008 1.728-9.856 4.992-13.664l53.408-57.248c3.488-4.048 9.344-11.696 12.24-21.072 1.568-4.88 2.016-9.616 2.112-15.056h-17.2c-0.080 3.888-0.352 7.008-1.264 9.92-1.696 5.36-5.040 10.256-7.552 13.344l-54.256 59.552c-6.832 6.88-10.544 15.76-10.544 25.12 0 14.064 8.432 26.992 22.416 33.36v102.24c0 14.512-11.872 26.336-26.448 26.336-14.544 0-26.32-11.824-26.32-26.336v-140c0-19.36 6.96-38.048 19.456-52.656l87.328-92.704z" />
<glyph unicode="&#xe640;" d="M41.088 141.328h132.256v-132.288c0-18.32 14.72-33.040 33.040-33.040h99.248c18.288 0 33.024 14.736 33.024 33.040v132.288h132.288c18.336 0 33.056 14.736 33.056 33.040v99.248c0 18.288-14.736 33.056-33.056 33.056h-132.288v132.288c0 18.304-14.752 33.040-33.024 33.040h-99.248c-18.32 0-33.040-14.736-33.040-33.040v-132.288h-132.256c-18.336 0-33.088-14.768-33.088-33.056v-99.248c0-18.304 14.736-33.040 33.088-33.040z" />
<glyph unicode="&#xe641;" d="M148.16 366.864c20.096 8.864 28.128 21.728 53.008 1.392 23.632-19.312 54.672-8.016 66.784 6.736 11.712 15.008 34.496 14.4 48.432 0.736 13.664-13.952 24.16-17.12 43.408-17.376 15.808-0.224 28.928 7.472 39.152 14.992 21.392 0.032 37.76-20.624 42.016-44.704h26c0.544 24.656-19.008 65.632-48.496 81.44 0.576 11.216-0.768 25.136-5.92 37.184-7.44 18.032-27.024 29.744-46.608 32.208-26.208 3.2-41.2-7.76-54.656-21.968-13.328-14.24-37.168-11.536-49.776-3.76-12.624 8.016-38.608 17.68-61.872-1.904-23.328-19.248-31.36-4.576-54.64 0.576-23.088 5.072-54.96-8.848-55.232-43.424 1.344-36.704 38.336-50.88 58.4-42.128zM222.896 71.968l-194.24 62.64v-166.608h454.944v347.52h-60.8v-191.536l-199.904 64.56v-29.536l199.904-64.016v-29.456l-394.4 127.488v-29.152l194.496-62.688z" />
<glyph unicode="&#xe642;" d="M136.56 296.448c-5.552-5.52-3.776-14.16-0.992-20.928l23.952 23.952c-7.536 5.216-15.728 4.24-22.96-3.024zM334.224 3.568h-149.328l-28.432-35.568h355.536l-28.432 35.568zM502.688 292.88l0.032 0.080-159.232 89.392v18.080c31.392-13.984 57.76 12.224 98.848-4.192v63.936c-41.072 16.4-67.456-9.792-98.848 4.176v4.992c0 5.856-4.768 10.656-10.704 10.656-5.856 0-10.624-4.784-10.624-10.656v-80.4c-9.136 2.16-16.144 6.544-22.88 10.816-21.488 13.584-36.928 18.4-70.432-29.472-2.24-3.232-1.456-7.664 1.744-9.92 1.248-0.864 2.672-1.28 4.080-1.28 2.256 0 4.448 1.040 5.824 3.024 28.144 40.176 35.36 35.6 51.152 25.616 6.224-3.952 13.408-8.496 22.624-11.376l-39.504-22.208 1.136-1.12 4.832-4.832-0.736-6.768-7.392-66.496-0.56-4.96-3.504-3.52-62.32-62.304v-186.368h49.776v213.328h51.568v-213.328h53.328v213.328h51.552v-213.328h49.792v241.792h31.984c9.808 0 17.776 7.952 17.776 17.76 0 6.736-3.76 12.528-9.312 15.552zM265.872 342.976l-14.224 14.208c-2.416-9.104-10.656-15.856-20.528-15.856-11.776 0-21.36 9.568-21.36 21.328 0 9.888 6.752 18.112 15.872 20.528l-11.456 11.472-66.464-7.376-147.712-147.696 110.784-110.768 147.696 147.696 7.392 66.464zM185.28 247.728l-17.712 17.696c2.72 2.72 9.952 10 2.48 22.416l-26.592-26.576c7.648-13.904 15.344-40.080-2.48-57.888-17.12-17.12-40.656-18.192-58.56-3.184l-9.008-8.976-11.056 11.056 9.44 9.424c-17.344 23.072-10.672 44.736 2.752 58.128l17.728-17.712c-2.752-2.72-9.968-10-2.496-22.432l26.608 26.592c-7.648 13.888-15.328 40.048 2.48 57.872 17.136 17.12 40.656 18.16 58.56 3.152l9.008 9.008 11.072-11.088-9.424-9.424c17.328-23.024 10.592-44.672-2.8-58.064zM100.288 218.128c7.52-5.248 15.68-4.272 22.96 3.008 5.536 5.536 3.744 14.16 0.976 20.928l-23.936-23.936z" />
<glyph unicode="&#xe643;" d="M0 224l256-256 256 256-256 256-256-256zM256 136.336c-50.912 0-92.816 38.32-98.592 87.664h197.184c-5.776-49.36-47.68-87.664-98.592-87.664zM354.592 247.36h-197.184c5.792 49.344 47.68 87.648 98.592 87.648s92.8-38.304 98.592-87.648z" />
<glyph unicode="&#xe644;" d="M255.36 41.152c20.096 0 37.344 4.368 44.608 10.576h212.032v285.968c0 25.328 0 41.936 0 42.832-133.392 58.8-240-3.408-253.472-15.824-17.696 16.944-119.408 75.76-258.528 15.824 0-0.896 0-17.52 0-42.832v-285.968h210.784c7.264-6.192 24.448-10.576 44.576-10.576zM274.048 311.696c0 42.576 56.624 65.52 126.496 65.52 33.616 0 64.048-7.952 86.688-20.944v-278.8c-114.288 71.856-213.184 6-213.184-5.264v239.488zM26.384 77.472v278.8c22.64 13.008 53.056 20.944 86.656 20.944 69.952 0 126.576-22.944 126.576-65.52v-239.488c0 11.264-98.944 77.12-213.232 5.264z" />
<glyph unicode="&#xe645;" d="M407.312 293.808v23.28h-46.56v-93.088h23.28v69.808h23.216v-23.28h23.28v23.28zM174.592 480h46.544v-23.28h-46.544v23.28zM104.672 177.456h23.28v-46.544h-23.28v46.544zM174.496 37.808v46.56h-23.264v46.544h-23.28v-46.544h23.264v-46.56zM407.248 37.808h-23.216v-46.56h-186.16v46.56h-23.28v-46.56h-0.096v-23.248h232.816v69.808h23.216v69.824h-23.28zM81.456 247.264h46.448v23.264h-69.728v-69.808h23.184v-23.264h23.264v23.264h-23.168zM290.816 247.264h23.28v69.824h46.656v23.264h-69.84v-23.264h-0.096zM244.448 340.352h46.368v23.28h-46.368v93.088h-23.264v-209.456h23.264zM151.232 200.72h23.264v256h-23.264v-209.456h-23.28v-23.264h23.28zM430.528 270.528h23.28v-162.912h-23.28v162.912z" />
<glyph unicode="&#xe646;" d="M178.592-12.512c18.832-6.144 38.672-10.016 59.2-11.488v24.288c-17.28 1.376-34.032 4.608-50 9.68l-9.2-22.48zM93.472 35.696c15.616-13.456 32.88-24.944 51.472-34.272l9.216 22.496c-15.632 7.984-30.24 17.68-43.488 28.96l-17.2-17.184zM186.512 437.536c16.352 5.344 33.52 8.752 51.28 10.16v24.304c-21.040-1.52-41.36-5.6-60.624-12.032l9.344-22.432zM33.472 335.040l22.48-9.216c8 15.632 17.664 30.256 28.96 43.504l-17.2 17.2c-13.44-15.616-24.944-32.88-34.24-51.488zM477.888 336.432c-9.168 18.064-20.464 34.88-33.616 50.096l-17.168-17.184c10.992-12.928 20.48-27.104 28.336-42.272l22.448 9.36zM41.984 292.192l-22.464 9.216c-6.16-18.848-10.032-38.688-11.52-59.2h24.288c1.392 17.28 4.624 34.048 9.696 49.984zM34.128 111.568c9.184-18.096 20.448-34.896 33.584-50.080l17.2 17.136c-10.992 12.928-20.48 27.104-28.352 42.304l-22.432-9.36zM32.288 205.792h-24.288c1.52-21.072 5.6-41.392 12.048-60.656l22.416 9.36c-5.344 16.368-8.752 33.52-10.176 51.296zM152.944 423.44l-9.376 22.432c-18.064-9.2-34.864-20.464-50.096-33.6l17.2-17.184c12.896 11.008 27.072 20.48 42.272 28.352zM479.696 242.208h24.304c-1.536 21.040-5.584 41.344-12.032 60.624l-22.4-9.36c5.312-16.352 8.72-33.504 10.128-51.264zM333.424 460.464c-18.848 6.176-38.672 10.048-59.216 11.536v-24.304c17.312-1.376 34.048-4.624 50-9.68l9.216 22.448zM427.104 78.624l17.168-17.136c13.472 15.568 24.96 32.848 34.288 51.408l-22.512 9.28c-7.984-15.664-17.68-30.288-28.944-43.552zM470.032 155.792l22.464-9.232c6.16 18.848 10.032 38.688 11.504 59.232h-24.304c-1.36-17.312-4.592-34.048-9.664-50zM274.208 0.288v-24.288c21.072 1.536 41.376 5.584 60.656 12.016l-9.36 22.416c-16.368-5.312-33.52-8.72-51.296-10.144zM359.072 24.544l9.36-22.448c18.096 9.184 34.896 20.48 50.080 33.616l-17.152 17.184c-12.928-10.992-27.088-20.512-42.288-28.352zM357.824 424.032c15.664-7.968 30.272-17.664 43.536-28.944l17.152 17.184c-15.568 13.44-32.848 24.976-51.424 34.256l-9.264-22.496z" />
<glyph unicode="&#xe647;" d="M479.264 78.064v190.336h-84.72v-190.336h-56.416v355.36h-141.248v-355.36h-37.632v228.448h-122.384v-228.448h-36.864c11.136-23.056 25.232-44.384 41.904-63.488h428.080c16.672 19.104 30.896 40.4 42 63.488h-32.72zM82.208 243.68h-27.36v36.48h27.36v-36.48zM141.28 243.68h-27.376v36.48h27.376v-36.48zM256.096 322.080h-44.592v30.864h44.592v-30.864zM256.096 370.688h-44.592v30.896h44.592v-30.896zM323.504 322.080h-44.624v30.864h44.624v-30.864zM323.504 370.688h-44.624v30.896h44.624v-30.896z" />
<glyph unicode="&#xe648;" d="M142.624 60.384l-25.616-25.184h268.8l-25.568 25.184zM155.424 72.976h38.4v151.040h38.384v-151.040h38.416v151.040h38.4v-151.040h38.384v176.192h25.6c7.072 0 12.8 5.632 12.8 12.576 0 4.224-2.096 7.888-5.312 10.176v0.032l-0.192 0.144c-0.096 0.064-0.224 0.128-0.32 0.192l-122.176 67.728v19.824c22.576-11.088 41.12 8.032 70.4-3.472v43.84c-29.28 11.504-47.84-7.616-70.4 3.488v2.8c0 3.488-2.864 6.304-6.4 6.304s-6.4-2.816-6.4-6.304v-66.48l-122.144-67.696c-0.128-0.080-0.24-0.16-0.352-0.224l-0.16-0.128v-0.032c-3.232-2.288-5.328-5.968-5.328-10.192 0-6.96 5.728-12.576 12.8-12.576h25.6v-176.192zM107.968 44.112l29.36 28.848h5.312v163.632h-131.904c-1.776-12.032-2.736-24.304-2.736-36.848 0-63.136 23.648-120.752 62.528-164.544h28.384l9.056 8.912zM91.408 205.12h25.616v-37.776h-25.616v37.776zM72.224 104.416h-25.6v37.776h25.6v-37.776zM72.224 167.344h-25.6v37.776h25.6v-37.776zM91.408 142.208h25.616v-37.776h-25.616v37.776zM501.248 236.592h-141.008v-163.632h5.28l3.744-3.696 25.616-25.152 9.040-8.912h37.568c38.864 43.792 62.512 101.408 62.512 164.544 0 12.544-0.96 24.816-2.752 36.848zM411.424 104.416h-25.616v37.776h25.616v-37.776zM411.424 167.344h-25.616v37.776h25.616v-37.776zM456.224 104.416h-25.6v37.776h25.6v-37.776zM430.624 167.344v37.776h25.6v-37.776h-25.6z" />
<glyph unicode="&#xe649;" d="M476.24 389.168c-77.936 35.312-170.4 55.040-261.552 55.040-29.52 0-58.64-1.36-86.992-6.048-11.088-1.84-25.488-5.952-31.728-10.72-8.72-6.704-14.32-17.232-14.32-29.104 0-10.912 4.784-20.816 12.384-27.52h-3.216c-20.272 0-36.672-16.432-36.672-36.704s16.4-36.688 36.672-36.688h-18.368c-20.272 0-36.688-16.432-36.688-36.688 0-20.32 16.432-36.736 36.688-36.736-20.272 0-36.688-16.432-36.688-36.704s16.416-36.704 36.688-36.704h164.624c12.688 0 22.928-10.288 22.928-22.944l-11.552-76.272c-1.072-3.472-1.664-7.152-1.664-10.912 0-20.288 16.448-36.704 36.72-36.704 16.96 0 31.28 11.568 35.408 27.136l1.584 5.248c23.584 75.056 76.976 143.6 155.728 187.824v165.2z" />
<glyph unicode="&#xf001;" d="M0 480l512-512h-512z" />
</font>
</defs>
</svg>
